<svg xmlns="http://www.w3.org/2000/svg" viewBox="0 0 64 64" role="img" aria-labelledby="title desc" shape-rendering="geometricPrecision">
  <title id="title">Openly Useful Open Monitor reverse mark</title>
  <desc id="desc">A light rounded O-shaped monitor containing a U and two cursor-like eyes.</desc>
  <path fill="#f7f3e9" fill-rule="evenodd" d="M20 4h24c9 0 16 7 16 16v24c0 9-7 16-16 16H20C11 60 4 53 4 44V20C4 11 11 4 20 4Zm0 10c-3.3 0-6 2.7-6 6v24c0 3.3 2.7 6 6 6h24c3.3 0 6-2.7 6-6V20c0-3.3-2.7-6-6-6H20Z"/>
  <rect x="20.5" y="21" width="7" height="9" rx="1.5" fill="#f7f3e9"/>
  <rect x="36.5" y="21" width="7" height="9" rx="1.5" fill="#f7f3e9"/>
  <path d="M20.5 34h7v4c0 3 1.5 4.5 4.5 4.5s4.5-1.5 4.5-4.5v-4h7v4c0 6.2-3.8 9.5-11.5 9.5S20.5 44.2 20.5 38v-4Z" fill="#f7f3e9"/>
</svg>
