<svg xmlns="http://www.w3.org/2000/svg" viewBox="0 0 64 64" role="img" aria-labelledby="title desc">
  <title id="title">Openly Useful Open Monitor mark</title>
  <desc id="desc">A rounded O-shaped monitor containing a U and two cursor-like eyes.</desc>
  <path fill="#247a4b" fill-rule="evenodd" d="M20 4h24c9 0 16 7 16 16v24c0 9-7 16-16 16H20C11 60 4 53 4 44V20C4 11 11 4 20 4Zm0 10c-3.3 0-6 2.7-6 6v24c0 3.3 2.7 6 6 6h24c3.3 0 6-2.7 6-6V20c0-3.3-2.7-6-6-6H20Z"/>
  <rect x="21" y="21" width="7" height="10" rx="1.5" fill="#247a4b"/>
  <rect x="36" y="21" width="7" height="10" rx="1.5" fill="#247a4b"/>
  <path d="M23.5 34v5c0 5.7 3.4 9 8.5 9s8.5-3.3 8.5-9v-5" fill="none" stroke="#247a4b" stroke-width="6.5" stroke-linecap="square"/>
</svg>
